Coordinates
version=1
nRows=12
nColumns=33
inDegrees=yes

Units are S.I. units (second, meters, Newtons, ...)
Angles are in degrees.

endheader
time	ground_thorax_rot_x	ground_thorax_rot_y	ground_thorax_rot_z	ground_thorax_tx	ground_thorax_ty	ground_thorax_tz	clav_prot_r	clav_elev_r	scapula_abduction_r	scapula_elevation_r	scapula_upward_rot_r	scapula_winging_r	shoulder_elv_r	plane_of_elev_r	axial_rot_r	elbow_flexion_r	pro_sup_r	wrist_flex_r	wrist_dev_r	clav_prot_l	clav_elev_l	scapula_abduction_l	scapula_elevation_l	scapula_upward_rot_l	scapula_winging_l	shoulder_elv_l	plane_of_elev_l	axial_rot_l	elbow_flexion_l	pro_sup_l	wrist_flex_l	wrist_dev_l
      7.99000000	    -44.12352120	     -8.67365201	      6.89404870	   -121.46212025	    806.62048855	     -5.10333075	      7.41703781	    -45.00000000	     45.00000000	    -45.00000000	    -18.82659996	  -2613.35336054	  -1908.22939672	    147.61890059	   -139.79799089	   1812.15609585	     21.86578735	     19.01674995	     10.81802318	     16.85857803	     44.31312043	    -45.00000000	    -45.00000000	    -27.24989754	    443.51689988	  -2809.67521622	     29.56189150	     13.98367217	   -355.25133751	     32.75874313	     10.14062705	    -22.41388555
      8.00000000	    -43.99240533	     -8.85688962	      7.35710007	   -126.28419329	    808.16467765	     -5.33564757	      7.76620445	    -45.00000000	     45.00000000	    -45.00000000	    -19.62725107	  -2614.04401765	  -1907.96209425	    147.40699031	   -139.56490009	   1812.14690186	     22.59708731	     19.12201558	     10.48965905	     17.17490545	     43.75329331	    -45.00000000	    -45.00000000	    -28.31156848	    443.85282796	  -2809.56617688	     29.31878552	     12.12335199	   -354.83840117	     31.73886791	      9.83866426	    -22.46705212
      8.01000000	    -43.85020896	     -9.18366599	      8.02776473	   -131.18839536	    809.71160600	     -5.56060750	      7.92340474	    -45.00000000	     45.00000000	    -45.00000000	    -20.59017359	  -2614.71156073	  -1907.69002964	    147.36216038	   -139.15248446	   1812.27532696	     23.67826166	     19.26985855	     10.01533853	     17.32988119	     43.29911116	    -45.00000000	    -45.00000000	    -29.28596304	    444.12354562	  -2809.47399225	     28.94668557	     10.67158329	   -354.58904737	     30.56866007	      9.57917529	    -22.51727916
      8.02000000	    -43.83647795	     -8.81942304	      7.82155724	   -136.14802531	    811.24192815	     -5.77763002	      8.05379644	    -45.00000000	     45.00000000	    -45.00000000	    -20.83379963	  -2614.92108109	  -1907.31468426	    147.55542746	   -139.27744748	   1812.34794033	     24.71165304	     19.40927885	      9.67945982	     17.11549123	     43.50957573	    -45.00000000	    -45.00000000	    -29.56014317	    444.66787919	  -2809.45618331	     28.82269589	      8.60520861	   -354.08194492	     29.88827128	      9.47525443	    -22.69814011
      8.03000000	    -43.66625677	     -9.11243360	      8.44592340	   -141.13906371	    812.74055770	     -5.98421858	      8.29670773	    -45.00000000	     45.00000000	    -45.00000000	    -21.87684820	  -2615.72948078	  -1907.11155942	    147.29051410	   -138.74419974	   1812.44900422	     26.23074848	     19.54011526	      9.25262900	     17.39023907	     43.00834185	    -45.00000000	    -45.00000000	    -30.66017741	    444.93492934	  -2809.34500871	     28.47542024	      7.08243747	   -353.84870711	     28.98771486	      9.03120583	    -22.69459158
      8.04000000	    -43.54040573	     -9.05292932	      8.60305700	   -146.13144966	    814.19236809	     -6.17682079	      8.53368545	    -45.00000000	     45.00000000	    -45.00000000	    -22.64128010	  -2615.99785429	  -1906.66468849	    147.47584269	   -138.66662538	   1812.65065552	     27.72330270	     19.64664905	      8.76760193	     17.06610277	     43.00576967	    -44.65962687	    -45.00000000	    -31.06343774	    445.21404091	  -2809.22922167	     28.35188300	      5.51203997	   -353.50364517	     28.41078774	      8.97012126	    -22.88740747
      8.05000000	    -43.31887774	     -9.52453727	      9.27150061	   -151.11080532	    815.58840674	     -6.35246427	      8.85851871	    -45.00000000	     45.00000000	    -45.00000000	    -23.96812178	  -2616.69147981	  -1906.51377547	    147.24430155	   -138.07671439	   1812.79524615	     29.68843920	     19.74057473	      8.33056598	     17.07886889	     42.38271150	    -44.30692086	    -45.00000000	    -32.13779914	    445.30069411	  -2808.97555577	     28.00409410	      4.35488519	   -353.34406158	     27.78756036	      8.49855024	    -22.88037195
      8.06000000	    -43.15931072	     -9.65397910	      9.51269664	   -156.06159692	    816.91784517	     -6.50762172	      8.95244936	    -45.00000000	     45.00000000	    -45.00000000	    -25.19103685	  -2617.06396168	  -1906.17280657	    147.14289823	   -137.77679767	   1812.96419360	     31.69927709	     19.75376652	      7.75693438	     16.74852502	     42.30978794	    -43.77919508	    -45.00000000	    -32.37234712	    445.52453867	  -2808.88664996	     27.85351902	      3.17856880	   -353.22704632	     27.47167228	      8.40423164	    -23.04884533
      8.07000000	    -42.92336472	    -10.04587110	     10.20372435	   -160.97040148	    818.17154793	     -6.64055778	      9.14795972	    -45.00000000	     44.60752580	    -45.00000000	    -26.72802261	  -2617.38833161	  -1905.85976710	    147.09858648	   -137.13200461	   1813.16173647	     34.18877914	     19.75758000	      7.29806392	     16.87176365	     41.79539902	    -43.50181560	    -45.00000000	    -33.90083547	    445.58386173	  -2808.52665568	     27.70560227	      2.14889230	   -353.05979988	     27.25060286	      7.95214399	    -23.05389760
      8.08000000	    -42.69749462	    -10.34290059	     10.86734496	   -165.84496581	    819.33979009	     -6.73819183	      9.25731622	    -45.00000000	     44.21370715	    -45.00000000	    -28.15700148	  -2617.83919729	  -1905.62446677	    147.02108845	   -136.10634487	   1813.46651435	     37.08024255	     19.69923612	      6.77075301	     16.90247492	     41.41565787	    -43.20781721	    -45.00000000	    -34.97752370	    445.65839076	  -2808.27539009	     27.51382518	      1.42900881	   -352.85242828	     27.21016007	      7.50673913	    -23.08350479
      8.09000000	    -42.43718008	    -10.69233613	     11.46827555	   -170.66564461	    820.41414238	     -6.80636541	      9.22834871	    -45.00000000	     43.82206938	    -45.00000000	    -29.70731000	  -2618.17791313	  -1905.30430072	    146.92484849	   -135.06741808	   1813.87465212	     40.43900955	     19.54486682	      6.15432801	     16.91706734	     41.12977662	    -42.74183501	    -45.00000000	    -35.96549416	    445.70116602	  -2808.06455007	     27.40286617	      0.89953295	   -352.71539046	     27.43634557	      7.10210045	    -23.12262165
      8.10000000	    -42.24574766	    -10.85594350	     11.89841635	   -175.41295371	    821.38619983	     -6.85044420	      9.28186253	    -45.00000000	     43.44082524	    -45.00000000	    -31.14608994	  -2618.47422893	  -1905.04924886	    146.86589684	   -134.07463445	   1814.33605461	     44.13370405	     19.32463080	      5.58494805	     16.87513485	     40.83634468	    -42.44549387	    -45.00000000	    -36.93710313	    445.80220766	  -2807.80441409	     27.30570358	      0.23009003	   -352.58667194	     27.95650002	      6.73035846	    -23.18083860
